<svg xmlns="http://www.w3.org/2000/svg" xmlns:xlink="http://www.w3.org/1999/xlink" viewBox="0 0 170.73 89"><defs><style>.cls-1{fill:#231f20;}.cls-2{fill:url(#linear-gradient);}.cls-3{fill:url(#linear-gradient-2);}.cls-4{fill:url(#linear-gradient-3);}</style><linearGradient id="linear-gradient" x1="-3.85" y1="6.58" x2="15.72" y2="45.21" gradientUnits="userSpaceOnUse"><stop offset="0" stop-color="#e21e2e"/><stop offset="0.91" stop-color="#f2673f"/><stop offset="1" stop-color="#f36f43"/></linearGradient><linearGradient id="linear-gradient-2" x1="10.37" y1="-0.63" x2="29.94" y2="38.01" xlink:href="#linear-gradient"/><linearGradient id="linear-gradient-3" x1="24.74" y1="-7.91" x2="44.31" y2="30.73" xlink:href="#linear-gradient"/></defs><title>logo</title><g id="Layer_2" data-name="Layer 2"><g id="Layer_1-2" data-name="Layer 1"><g id="Layer_2-2" data-name="Layer 2"><g id="Layer_1-2-2" data-name="Layer 1-2"><path class="cls-1" d="M9.89,73.61a4.92,4.92,0,0,1,1.82,2,6.75,6.75,0,0,1,.66,3.06,6,6,0,0,1-.74,3,4.85,4.85,0,0,1-2,1.92,6.61,6.61,0,0,1-3,.66,5.07,5.07,0,0,1-1.8-.33A3.7,3.7,0,0,1,3.34,83v4.34A1.67,1.67,0,0,1,1.67,89h0A1.67,1.67,0,0,1,0,87.33V73.94a.74.74,0,0,1,.74-.74H2.89l.3,1.25a6.4,6.4,0,0,1,4.09-1.54A4.9,4.9,0,0,1,9.89,73.61ZM8.06,80.78A2.7,2.7,0,0,0,9,78.71a2.91,2.91,0,0,0-.81-2.13,2.66,2.66,0,0,0-2-.82,3.3,3.3,0,0,0-1.66.38,3,3,0,0,0-1.12,1.2v2.58a2.35,2.35,0,0,0,.94,1.23,2.82,2.82,0,0,0,1.6.46A3.09,3.09,0,0,0,8.06,80.78Z"/><path class="cls-1" d="M40.61,73.61a4.72,4.72,0,0,1,1.82,2,6.63,6.63,0,0,1,.66,3.06,6,6,0,0,1-.73,3,4.93,4.93,0,0,1-2,1.92,6.61,6.61,0,0,1-3,.66,5,5,0,0,1-1.79-.33A3.74,3.74,0,0,1,34.06,83v4.34A1.67,1.67,0,0,1,32.39,89h0a1.68,1.68,0,0,1-1.68-1.67h0V73.94a.74.74,0,0,1,.74-.74h2.17l.3,1.25A6.38,6.38,0,0,1,38,72.91,5,5,0,0,1,40.61,73.61Zm-1.83,7.17a2.7,2.7,0,0,0,.9-2.07,2.94,2.94,0,0,0-.8-2.13,2.69,2.69,0,0,0-2-.82,3.34,3.34,0,0,0-1.67.39,3.08,3.08,0,0,0-1.12,1.2v2.58A2.39,2.39,0,0,0,35,81.15a2.86,2.86,0,0,0,1.6.46A3.08,3.08,0,0,0,38.78,80.78Z"/><path class="cls-1" d="M56.83,73.61a4.86,4.86,0,0,1,1.82,2,6.75,6.75,0,0,1,.66,3.06,6,6,0,0,1-.74,3,4.91,4.91,0,0,1-2,1.92,6.64,6.64,0,0,1-3,.66,5.07,5.07,0,0,1-1.8-.33A3.63,3.63,0,0,1,50.28,83v4.34A1.68,1.68,0,0,1,48.6,89h0a1.67,1.67,0,0,1-1.67-1.67h0V73.94a.74.74,0,0,1,.74-.74h2.15l.3,1.25a6.4,6.4,0,0,1,4.09-1.54A4.84,4.84,0,0,1,56.83,73.61ZM55,80.78a2.73,2.73,0,0,0,.9-2.07,2.91,2.91,0,0,0-.81-2.13,2.66,2.66,0,0,0-2-.82,3.34,3.34,0,0,0-1.67.39,3,3,0,0,0-1.12,1.2v2.58a2.38,2.38,0,0,0,.94,1.22,2.82,2.82,0,0,0,1.6.46A3.06,3.06,0,0,0,55,80.78Z"/><path class="cls-1" d="M24.37,82.05h0a1.2,1.2,0,0,1-.44,1.64.8.8,0,0,1-.16.08,5.22,5.22,0,0,1-.56.18,6.32,6.32,0,0,1-1.83.3,6.81,6.81,0,0,1-3.23-.71,4.79,4.79,0,0,1-2.06-2,6,6,0,0,1-.7-2.94,5.36,5.36,0,0,1,.81-2.84,5.76,5.76,0,0,1,2.21-2.06,6.22,6.22,0,0,1,3.05-.76,5.31,5.31,0,0,1,3.71,1.32,5.52,5.52,0,0,1,1.34,1.9,1.77,1.77,0,0,1-.91,2.33l-.18.07-6.05,1.93a2.65,2.65,0,0,0,2.1.9,4.05,4.05,0,0,0,.85-.12A1.79,1.79,0,0,1,24.37,82.05Zm-5-5.73a3.05,3.05,0,0,0-.67,2.07v.22l4.62-1.56a2.06,2.06,0,0,0-2.14-1.5A2.31,2.31,0,0,0,19.39,76.32Z"/><path class="cls-1" d="M71.31,82.13h0a1.2,1.2,0,0,1-.43,1.64l-.15.08-.56.18a6,6,0,0,1-1.83.3,6.88,6.88,0,0,1-3.24-.71,4.82,4.82,0,0,1-2.06-2,6.22,6.22,0,0,1-.71-3,5.38,5.38,0,0,1,.81-2.84,5.93,5.93,0,0,1,2.19-2.06A6.39,6.39,0,0,1,68.39,73a5.27,5.27,0,0,1,3.71,1.32,5.39,5.39,0,0,1,1.34,1.9,1.78,1.78,0,0,1-.92,2.34l-.16.06-6.07,1.93a2.67,2.67,0,0,0,2.1.9,3.13,3.13,0,0,0,.86-.12A1.8,1.8,0,0,1,71.31,82.13Zm-5-5.72a3.1,3.1,0,0,0-.68,2.07v.21l4.62-1.56a2.06,2.06,0,0,0-2.14-1.5A2.25,2.25,0,0,0,66.33,76.41Z"/><path class="cls-1" d="M82.15,74.33a6.51,6.51,0,0,1,1.55-1c.22-.1.45-.19.68-.27a.43.43,0,0,1,.53.28.78.78,0,0,1,0,.14l-.12,2.42a.42.42,0,0,1-.43.4h0a3.07,3.07,0,0,0-1.78.53,3.47,3.47,0,0,0-1.18,1.37,3.74,3.74,0,0,0-.41,1.7v2.44A1.68,1.68,0,0,1,79.34,84h0a1.68,1.68,0,0,1-1.68-1.68V74.91a1.47,1.47,0,0,1,1.47-1.47H80.7l.26,2.4A5,5,0,0,1,82.15,74.33Z"/><path class="cls-1" d="M89.72,83.71a5.06,5.06,0,0,1-1.52-.93.53.53,0,0,1-.07-.72l.76-1a.54.54,0,0,1,.76-.11h0a3.61,3.61,0,0,0,2.2.93,2.24,2.24,0,0,0,1-.2.67.67,0,0,0,.39-.6.78.78,0,0,0-.45-.73,4.85,4.85,0,0,0-1-.42c-.37-.12-.63-.19-.75-.22A4.08,4.08,0,0,1,89,78.41a3,3,0,0,1-.67-2,3.37,3.37,0,0,1,1.82-3A4.84,4.84,0,0,1,92.49,73a7.89,7.89,0,0,1,2.22.26,5.41,5.41,0,0,1,1.28.56.54.54,0,0,1,.2.74l0,0-.68,1a.54.54,0,0,1-.74.16,6.25,6.25,0,0,0-.63-.33,2.84,2.84,0,0,0-1.07-.25,1.71,1.71,0,0,0-.94.24.71.71,0,0,0-.36.58.79.79,0,0,0,.42.76,6.89,6.89,0,0,0,1.4.51l.3.09.32.1c1.66.55,2.48,1.54,2.48,3a3.52,3.52,0,0,1-.5,1.85,3.59,3.59,0,0,1-1.53,1.36,5.36,5.36,0,0,1-2.49.52A6.31,6.31,0,0,1,89.72,83.71Z"/><path class="cls-1" d="M156.53,82h0a1.2,1.2,0,0,1-.44,1.64l-.16.08-.56.19a6.67,6.67,0,0,1-1.83.3,7,7,0,0,1-3.24-.71,4.9,4.9,0,0,1-2.05-2,6.15,6.15,0,0,1-.69-2.94,5.26,5.26,0,0,1,.8-2.84,5.8,5.8,0,0,1,2.2-2.06,6.28,6.28,0,0,1,3.06-.76,5.31,5.31,0,0,1,3.71,1.32,5.39,5.39,0,0,1,1.34,1.9,1.77,1.77,0,0,1-.91,2.34l-.17.06-6.06,1.93a2.57,2.57,0,0,0,2.09.9,3.13,3.13,0,0,0,.86-.12A1.81,1.81,0,0,1,156.53,82Zm-5-5.72a3,3,0,0,0-.67,2.07v.22L155.49,77a2,2,0,0,0-2.14-1.5A2.26,2.26,0,0,0,151.55,76.24Z"/><path class="cls-1" d="M163.78,83.55a5.06,5.06,0,0,1-1.52-.93.54.54,0,0,1-.07-.73l.76-1a.55.55,0,0,1,.76-.1h0a3.57,3.57,0,0,0,2.19.93,2.13,2.13,0,0,0,1.05-.21.66.66,0,0,0,.4-.6.81.81,0,0,0-.46-.73,4.85,4.85,0,0,0-1-.42l-.75-.22a4.1,4.1,0,0,1-2-1.28,3.11,3.11,0,0,1-.67-2,3.37,3.37,0,0,1,1.83-3,4.81,4.81,0,0,1,2.33-.51,7.94,7.94,0,0,1,2.22.26,5.59,5.59,0,0,1,1.28.56.54.54,0,0,1,.19.74v0l-.68,1a.53.53,0,0,1-.74.16c-.2-.12-.42-.23-.63-.33a2.84,2.84,0,0,0-1.07-.25,1.71,1.71,0,0,0-.94.24.67.67,0,0,0-.37.58.81.81,0,0,0,.43.76,6.72,6.72,0,0,0,1.38.51l.3.1.32.09c1.65.55,2.48,1.55,2.48,3a3.55,3.55,0,0,1-.51,1.82,3.63,3.63,0,0,1-1.52,1.36,5.52,5.52,0,0,1-2.49.52A6.51,6.51,0,0,1,163.78,83.55Z"/><path class="cls-1" d="M110.49,73.82a3,3,0,0,1,1,2.26V82a2,2,0,0,1-2,1.94h0a1.37,1.37,0,0,1-1.37-1.37V77.34a1.4,1.4,0,0,0-1.54-1.54,2.11,2.11,0,0,0-1.86,1.08,5,5,0,0,0-.69,2.79v3.14A1.15,1.15,0,0,1,102.91,84h-.42a1.8,1.8,0,0,1-1.8-1.8V66.62A1.65,1.65,0,0,1,102.34,65h0A1.65,1.65,0,0,1,104,66.62V75.1a4.14,4.14,0,0,1,1.6-1.59,4.86,4.86,0,0,1,2.42-.58A3.58,3.58,0,0,1,110.49,73.82Z"/><path class="cls-1" d="M127.49,74.73v7.93A1.29,1.29,0,0,1,126.2,84h-2.08v-1.3a4.72,4.72,0,0,1-3.51,1.59,5.25,5.25,0,0,1-3.79-1.4,5.42,5.42,0,0,1-1.44-4.13,6.34,6.34,0,0,1,.71-3,5.34,5.34,0,0,1,1.89-2,4.76,4.76,0,0,1,2.52-.72,4.86,4.86,0,0,1,2.22.42,4.51,4.51,0,0,1,1.44,1.2l.22-1.08h1.84A1.27,1.27,0,0,1,127.49,74.73Zm-3.37,5.18V77.34a2.47,2.47,0,0,0-1-1.23,3.07,3.07,0,0,0-1.67-.46,2.52,2.52,0,0,0-1.89.82,2.88,2.88,0,0,0-.78,2.07,3.05,3.05,0,0,0,.39,1.5,2.83,2.83,0,0,0,1,1.07,2.8,2.8,0,0,0,3.93-1.2Z"/><path class="cls-1" d="M143.7,66.39V84h-2.25a1.1,1.1,0,0,1-1.1-1.11h0a6.31,6.31,0,0,1-3.9,1.4,5,5,0,0,1-2.63-.69,4.75,4.75,0,0,1-1.82-2,6.58,6.58,0,0,1-.66-3,6,6,0,0,1,.71-3,4.71,4.71,0,0,1,2-1.92,6,6,0,0,1,2.86-.67,5.83,5.83,0,0,1,1.95.33,4,4,0,0,1,1.54,1V66.4A1.42,1.42,0,0,1,141.77,65h.51A1.41,1.41,0,0,1,143.7,66.39ZM139.23,81a3,3,0,0,0,1.11-1.19V77.24a2.41,2.41,0,0,0-1-1.23,3.34,3.34,0,0,0-1.74-.46,2.71,2.71,0,0,0-2,.82,2.77,2.77,0,0,0-.84,2.08,3,3,0,0,0,.38,1.5,2.91,2.91,0,0,0,1,1.07,2.57,2.57,0,0,0,1.4.38A3.25,3.25,0,0,0,139.23,81Z"/></g></g><g id="Layer_2-3" data-name="Layer 2"><g id="Layer_1-2-3" data-name="Layer 1-2"><path class="cls-2" d="M14.15,26.11H0L3.46,36.72A11.23,11.23,0,0,0,14,44.48h.33c2,0,4.67,0,5.71,0Q17.1,35.3,14.15,26.11Z"/><path class="cls-3" d="M34.69,42.11Q31,29.89,27.3,17.68L21.89,0H11.34A2.86,2.86,0,0,0,8.48,2.85a3,3,0,0,0,.14.89L16,26.35h0Q19,35.42,22,44.49H32.92a1.84,1.84,0,0,0,1.85-1.84A2,2,0,0,0,34.69,42.11Z"/><path class="cls-4" d="M41.2,10.34,39.43,4.9A7.12,7.12,0,0,0,32.67,0H24l5.42,17.68h6.47a5.6,5.6,0,0,0,5.6-5.6A5.42,5.42,0,0,0,41.2,10.34Z"/></g></g></g></g></svg>